<svg xmlns="http://www.w3.org/2000/svg" xmlns:xlink="http://www.w3.org/1999/xlink" xmlns:inkscape="http://www.inkscape.org/namespaces/inkscape" version="1.1" width="534" height="678.5" viewBox="0 0 534 678.5">
<defs>
<clipPath id="clip_1">
<path transform="matrix(1,0,0,-1,0,678.5)" d="M0 678.5H534V0H0Z"/>
</clipPath>
</defs>
<g inkscape:groupmode="layer" inkscape:label="Layer 1">
<g clip-path="url(#clip_1)">
<path transform="matrix(1,0,0,-1,270.4609,664.5)" d="M0 0C-22.83 .267-42.133 1.251-61.068 5.849-77.128 9.744-89.475 18.451-96.602 33.726-101.077 43.314-101.725 53.51-100.592 63.801-99.119 77.151-97.02 90.442-95.609 103.799-93.866 120.272-92.437 136.792-91.081 153.303-89.09 177.604-87.224 201.911-85.425 226.227-84.052 244.744-82.915 263.276-81.578 281.795-80.745 293.389-79.724 304.977-78.806 316.564-78.694 317.948-78.609 319.341-78.628 320.726-78.75 330.573-83.674 335.896-93.503 335.822-100.418 335.771-107.345 334.897-114.227 334.075-137.139 331.343-160.024 328.381-182.937 325.693-190.72 324.783-198.545 324.997-206.234 326.833-220.851 330.329-230.898 339.235-235.384 353.451-244.385 381.958-245.276 410.908-238.253 439.99-236.28 448.165-232.859 455.776-227.096 462.07-218.77 471.154-208.056 475.124-196.043 475.923-183.663 476.745-171.461 474.791-159.259 473.08-139.504 470.311-119.762 467.416-99.985 464.817-96.184 464.313-92.155 464.492-88.364 465.128-80.834 466.387-76.318 471.355-75.896 478.974-75.547 485.187-75.685 491.465-76.073 497.684-77.073 513.61-78.194 529.537-79.523 545.448-80.837 561.175-82.515 576.879-83.939 592.598-84.654 600.491-84.654 608.361-82.529 616.113-78.095 632.299-66.803 641.51-51.569 646.767-41.467 650.254-30.975 651.558-20.391 652.209-1.71 653.356 16.949 653.187 35.326 649.262 41.971 647.848 48.624 645.737 54.772 642.864 68.911 636.26 76.164 624.429 78.167 609.191 79.606 598.232 77.991 587.371 77 576.493 75.671 561.894 74.075 547.314 73.087 532.691 72.024 517.031 71.466 501.327 70.844 485.639 70.707 482.202 70.803 478.647 71.532 475.31 72.828 469.378 76.878 466.054 82.868 464.943 89.854 463.64 96.722 464.847 103.573 465.803 125.486 468.853 147.344 472.295 169.293 475.02 177.407 476.026 185.781 476.183 193.93 475.472 210.967 473.977 222.058 464.092 228.748 448.728 232.717 439.605 234.416 429.966 235.196 420.178 236.586 402.903 236.349 385.66 232.835 368.607 231.059 359.989 228.459 351.593 223.335 344.3 214.976 332.387 203.048 326.759 188.866 325.553 178.578 324.679 168.449 326.656 158.294 327.862 136.593 330.439 114.902 333.165 93.2 335.764 91.061 336.015 88.854 335.992 86.7 335.814 77.312 335.03 72.58 329.691 73.087 320.303 73.497 312.685 74.142 305.073 74.701 297.454 76.212 276.773 77.688 256.095 79.269 235.422 80.498 219.333 81.879 203.251 83.183 187.169 84.438 171.694 85.767 156.22 86.907 140.737 88.362 120.998 90.342 101.341 93.43 81.778 95.229 70.376 96.231 58.767 94.604 47.275 91.708 26.907 79.933 13.728 60.459 7.367 48.49 3.458 36.073 2.029 23.598 1.147 14.602 .511 5.576 .267 0 0" fill="#0f3d27" fill-rule="evenodd"/>
<path transform="matrix(1,0,0,-1,231.2637,215.90631)" d="M0 0C.636-4.479-1.899-8.321-3.766-12.282-5.856-16.718-8.378-20.953-10.691-25.284-10.969-25.817-11.773-26.329-11.272-26.973-10.862-27.494-10.04-27.258-9.423-27.169-6.716-26.795-4.021-26.402-1.288-27.105 1.588-27.846 3.224-29.794 3.331-32.8 3.439-35.713 1.702-38.464-1.033-39.02-7.901-40.415-14.526-42.67-21.316-44.357-25.726-45.446-29.921-43.514-30.798-39.937-31.608-36.646-30.709-33.519-29.044-30.667-25.39-24.411-21.628-18.221-17.959-11.979-16.408-9.344-14.938-6.648-13.924-3.746-13.572-2.739-13.146-1.605-14.168-.857-15.224-.074-16.389-.622-17.296-1.311-19.106-2.683-20.572-4.391-21.772-6.337-22.812-8.003-24.341-9.025-26.27-9.284-30.768-9.885-33.937-6.356-32.733-1.873-30.446 6.627-20.302 15.143-10.137 13.876-4.75 13.21 .736 6.953 0 0" fill="#ffffff" fill-rule="evenodd"/>
<path transform="matrix(1,0,0,-1,220.9346,306.1582)" d="M0 0C3.34 .581 6.135 .748 8.938 .644 12.672 .507 14.883-1.322 15.127-4.476 15.452-8.604 13.527-11.162 9.692-11.917 3.731-13.091-2.236-14.198-8.096-15.812-8.718-15.975-9.337-16.168-9.973-16.256-17.026-17.204-20.68-12.994-18.478-6.208-16.848-1.182-13.432 2.917-10.803 7.423-7.641 12.839-3.876 17.898-1.388 23.696-1.137 24.281-.933 24.907-.844 25.532-.736 26.244-.651 27.032-1.418 27.488-2.121 27.902-2.792 27.68-3.454 27.277-5.342 26.11-6.809 24.548-8.137 22.793-9.307 21.253-10.51 19.701-12.68 19.517-14.964 19.32-17.155 19.673-18.492 21.683-20.099 24.104-20.032 26.858-18.565 29.254-13.99 36.694-7.948 41.899 1.455 41.804 5.708 41.759 8.663 39.579 10.811 36.299 13.916 31.545 13.816 26.473 11.721 21.298 9.074 14.764 5.02 9.021 1.651 2.891 1.226 2.125 .785 1.369 0 0" fill="#ffffff" fill-rule="evenodd"/>
<path transform="matrix(1,0,0,-1,290.5742,304.9697)" d="M0 0C.967 0 1.933 .021 2.899-.009 6.36-.107 8.314-1.933 8.812-5.494 9.192-8.268 7.356-11.106 4.324-11.766 .015-12.706-4.356-13.331-8.699-14.105-10.995-14.509-13.276-14.964-15.571-15.378-20.828-16.319-24.733-12.217-23.683-7.001-22.701-2.125-19.503 1.569-17.078 5.656-13.672 11.398-9.729 16.817-6.749 22.812-6.46 23.397-6.094 23.956-5.931 24.563-5.561 25.951-4.191 27.591-5.897 28.721-7.459 29.753-8.747 28.231-9.914 27.32-10.921 26.536-11.769 25.544-12.665 24.614-15.46 21.742-17.651 21.217-20.306 22.812-22.779 24.293-23.964 27.506-22.619 30.689-20.258 36.302-16.126 40.359-10.203 41.985-4.673 43.499 .696 43.003 4.957 38.464 7.989 35.247 8.922 31.401 8.189 27.099 7.22 21.405 4.295 16.577 1.439 11.724-.521 8.396-2.48 5.071-4.539 1.807-5.561 .181-4.941-.141-3.384-.082-2.259-.037-1.129-.066 0-.066Z" fill="#ffffff" fill-rule="evenodd"/>
<path transform="matrix(1,0,0,-1,289.249,240.20209)" d="M0 0C1.14 .056 2.483-.152 3.831-.403 7.648-1.114 8.91-2.691 8.796-6.802 8.707-9.995 6.697-12.269 3.396-12.487-2.299-12.865-7.815-14.212-13.376-15.353-18.311-16.363-22.512-14.205-23.112-10.273-23.53-7.53-22.746-5.069-21.312-2.691-17.61 3.446-13.506 9.311-9.581 15.304-7.948 17.804-6.327 20.31-5.161 23.052-4.553 24.475-3.351 26.211-5.01 27.469-6.623 28.687-8.045 27.095-9.226 26.178-10.681 25.052-11.888 23.604-13.193 22.293-15.245 20.246-18.07 19.654-20.242 20.817-22.357 21.941-23.856 24.893-23.046 27.476-20.931 34.144-16.229 38.509-9.744 40.797-3.71 42.918 1.477 41.126 5.823 36.595 8.723 33.574 9.429 29.924 8.937 25.91 8.163 19.603 4.502 14.612 1.406 9.358 .022 7.001-1.477 4.705-2.88 2.358-4.247 .062-4.194 0-1.443 0Z" fill="#ffffff" fill-rule="evenodd"/>
<path transform="matrix(1,0,0,-1,320.6797,236.4375)" d="M0 0C.019 2.821-1.966 4.006-4.34 2.784-5.649 2.117-6.501 1.029-6.968-.229-7.59-1.888-7.06-3.398-5.631-4.505-4.221-5.586-2.97-4.783-1.951-3.905-.789-2.891-.2-1.451 0 0M-21.231 .852C-20.45 12.021-16.566 21.945-9.096 30.357-7.016 32.692-4.909 35.073-2.166 36.688 .363 38.176 2.925 38.035 5.334 36.414 7.052 35.259 7.485 33.356 7.249 31.498 6.959 29.272 5.479 27.576 3.949 26.004 1.544 23.53-1.07 21.235-2.788 18.162-4.206 15.634-4.213 15.482-1.366 15.634 6.553 16.07 13.217 9.452 12.99 .537 12.802-6.849 9.044-12.616 2.51-16.274-2.662-19.177-10.239-18.584-14.39-15.201-18.785-11.603-20.762-6.842-21.217-1.325-21.279-.606-21.231 .123-21.231 .852" fill="#ffffff" fill-rule="evenodd"/>
<path transform="matrix(1,0,0,-1,255.9307,292.0059)" d="M0 0C.222 2.244-.545 4.535-1.532 6.745-2.362 8.604-3.532 8.752-4.758 7.123-6.517 4.791-7.079 2.014-7.197-.814-7.312-3.395-7.116-6.012-5.542-8.195-4.099-10.198-2.943-10.077-1.803-7.9-.552-5.516 .096-2.961 0 0M12.623-1.336C11.86-7.549 10.921-13.923 6.645-19.324 2.103-25.048-4.986-26.41-11.132-22.419-16.016-19.243-18.666-14.519-19.603-8.974-21.206 .519-19.121 9.314-13.86 17.415-8.167 26.178 1.711 24.59 7.333 16.944 11.328 11.511 12.102 5.324 12.623-1.336" fill="#ffffff" fill-rule="evenodd"/>
<path transform="matrix(1,0,0,-1,246.7119,230.7207)" d="M0 0C.33-1.822 .363-3.858 1.488-5.62 2.007-6.438 2.566-7.375 3.621-7.405 4.75-7.434 5.22-6.427 5.616-5.546 7.683-.989 7.687 3.609 5.713 8.196 5.365 8.995 5.013 9.906 3.895 9.881 2.74 9.861 2.251 8.977 1.848 8.092 .671 5.582 .297 2.883 0 0M19.463 .87C19.336-5.235 17.981-11.933 13.401-17.741 8.845-23.523 .866-24.456-4.698-19.459-11.039-13.762-13.201-6.517-12.286 1.873-11.684 7.403-10.143 12.55-7.39 17.361-6.046 19.705-4.32 21.745-2.133 23.271 2.159 26.276 7.52 25.647 11.514 21.879 17.274 16.459 19.507 9.64 19.463 .87" fill="#ffffff" fill-rule="evenodd"/>
<path transform="matrix(1,0,0,-1,322.8008,263.3584)" d="M0 0C1.691 0 3.384 .014 5.075-.008 10.462-.067 13.85-4.472 12.702-9.796 12.217-12.018 11.458-14.142 10.447-16.142 4.717-27.507-.107-39.25-4.657-51.123-5.315-52.843-6.138-54.502-7.257-56.013-9.425-58.948-12.49-59.774-15.76-58.249-18.466-56.982-19.965-53.37-19.181-50.244-17.755-44.589-15.179-39.383-12.754-34.141-9.885-27.932-6.797-21.828-3.816-15.667-3.554-15.115-2.891-14.506-3.343-13.924-3.746-13.395-4.535-13.676-5.168-13.757-8.107-14.172-11.036-14.616-13.982-14.975-17.507-15.401-20.524-13.476-21.258-10.426-22.05-7.108-19.754-2.691-16.496-1.578-12.883-.338-9.048-.549-5.312-.118-3.562 .073-1.773-.09 0-.09Z" fill="#ffffff" fill-rule="evenodd"/>
</g>
</g>
</svg>
